<?xml version="1.0" encoding="utf-8"?>
<!-- Generator: Adobe Illustrator 23.0.3, SVG Export Plug-In . SVG Version: 6.00 Build 0)  -->
<svg version="1.1" id="Layer_1" xmlns="http://www.w3.org/2000/svg" xmlns:xlink="http://www.w3.org/1999/xlink" x="0px" y="0px"
	 viewBox="0 0 1452 1174" style="enable-background:new 0 0 1452 1174;" xml:space="preserve">
<style type="text/css">
	.st0{display:none;stroke:#FFFFFF;stroke-miterlimit:10;}
	.st1{display:none;}
	.st2{display:inline;fill:none;stroke:#CC2899;stroke-width:3.1921;stroke-miterlimit:10;}
	.st3{display:inline;}
	.st4{fill:#CC2899;}
	.st5{fill:#FFFFFF;}
	.st6{fill:none;stroke:#FFFFFF;stroke-miterlimit:10;}
	.st7{fill:none;stroke:#323232;stroke-width:2;stroke-miterlimit:10;}
	.st8{fill:#323232;}
	.st9{fill:none;stroke:#323232;stroke-width:2.0932;stroke-miterlimit:10;}
	
		.st10{display:inline;fill:none;stroke:#CC2899;stroke-width:2;stroke-linecap:round;stroke-linejoin:round;stroke-miterlimit:10;stroke-dasharray:4;}
	.st11{fill:none;stroke:#323232;stroke-width:2.3557;stroke-miterlimit:10;}
	.st12{fill:none;stroke:#323232;stroke-width:2.162;stroke-miterlimit:10;}
	.st13{fill:none;}
	
		.st14{fill:none;stroke:#CC2899;stroke-width:2;stroke-linecap:round;stroke-linejoin:round;stroke-miterlimit:10;stroke-dasharray:4;}
	.st15{fill:none;stroke:#323232;stroke-width:2.2412;stroke-miterlimit:10;}
	.st16{fill:#F2F2F2;}
	.st17{fill:none;stroke:#000000;stroke-width:1.6622;stroke-miterlimit:10;}
	.st18{fill:none;stroke:#FFFFFF;stroke-width:20;stroke-miterlimit:10;}
	
		.st19{fill:none;stroke:#000000;stroke-width:2;stroke-linecap:round;stroke-linejoin:round;stroke-miterlimit:10;stroke-dasharray:4;}
	.st20{fill:none;stroke:#007CF9;stroke-width:2;stroke-miterlimit:10;}
	.st21{fill:none;stroke:#CC2899;stroke-width:3;stroke-miterlimit:10;}
	.st22{fill:#16243F;}
	.st23{font-family:'NotoSerif';}
	.st24{font-size:17px;}
	.st25{fill:#0073CF;}
	.st26{font-size:16px;}
	.st27{font-family:'NotoSans';}
	.st28{fill:none;stroke:#0073CF;stroke-miterlimit:10;}
	.st29{letter-spacing:5;}
	.st30{stroke:#FFFFFF;stroke-miterlimit:10;}
	.st31{opacity:0.99;fill:#212529;}
	.st32{fill:#00ADEF;}
	.st33{fill:none;stroke:#00ADEF;stroke-miterlimit:10;}
	.st34{fill:none;stroke:#000000;stroke-width:2;stroke-miterlimit:10;}
	.st35{fill:none;stroke:#000000;stroke-width:2.0324;stroke-miterlimit:10;}
	.st36{fill:none;stroke:#CC2899;stroke-width:3.1921;stroke-miterlimit:10;}
	.st37{fill:none;stroke:#000000;stroke-width:2.07;stroke-miterlimit:10;}
	.st38{fill:none;stroke:#010101;stroke-width:2;stroke-miterlimit:10;}
	.st39{fill:#010101;}
	.st40{fill:none;stroke:#000000;stroke-width:1.1461;stroke-miterlimit:10;}
	.st41{fill:none;stroke:#000000;stroke-linecap:round;stroke-linejoin:round;}
	.st42{fill:none;stroke:#000000;stroke-linecap:round;stroke-linejoin:round;stroke-dasharray:3.9939,3.9939;}
	.st43{fill:none;stroke:#000000;stroke-linecap:round;stroke-linejoin:round;stroke-miterlimit:10;stroke-dasharray:4;}
	.st44{fill:#00A551;}
	.st45{fill:#FCBE04;}
	.st46{fill:#D9DC42;}
	.st47{fill:#E62A4F;}
	.st48{fill:#999999;}
	.st49{fill:#E6E6E6;}
	.st50{font-family:'NotoSans-Italic';}
	.st51{letter-spacing:3;}
	.st52{letter-spacing:6;}
</style>
<rect x="-353.71" y="0.37" class="st0" width="1920" height="1063"/>
<g>
	<g>
		<rect x="1227.82" y="9" class="st22" width="203.42" height="64.72"/>
		<text transform="matrix(1 0 0 1 1286.6282 44.6131)" class="st5 st23 st24">Job Search</text>
	</g>
	<g>
		<rect x="1227.89" y="87.59" class="st25" width="203.42" height="55.48"/>
		<text transform="matrix(1 0 0 1 1287.4465 118.5848)" class="st5 st23 st26">Apply Now</text>
		<text transform="matrix(1 0 0 1 1267.1897 197.6385)" class="st5 st27 st26">Filter jobs</text>
		<polyline class="st28" points="1227.96,138.42 1227.82,192.97 1251.86,193.03 		"/>
	</g>
</g>
<g>
	<g>
		<rect x="16.89" y="9" class="st22" width="203.42" height="64.72"/>
		<text transform="matrix(1 0 0 1 94.1816 44.6131)" class="st5 st23 st24">Home</text>
	</g>
	<g>
		<text transform="matrix(1 0 0 1 55.9949 395.6385)"><tspan x="0" y="0" class="st5 st27 st26">Social Feed</tspan><tspan x="0" y="19.2" class="st5 st27 st26">- Instagram</tspan><tspan x="0" y="38.4" class="st5 st27 st26">- Linkedin</tspan></text>
		<polyline class="st28" points="16.77,311.87 16.63,390.97 40.67,391.03 		"/>
		<rect x="16.77" y="88.59" class="st28" width="203.42" height="55.48"/>
		<text transform="matrix(1 0 0 1 66.8148 119.5848)" class="st5 st23 st26">Landing page</text>
		<text transform="matrix(1 0 0 1 56.0623 198.6385)" class="st5 st27 st26">Geo-Ip detection</text>
		<polyline class="st28" points="16.83,139.42 16.7,193.97 40.74,194.03 		"/>
		<g>
			<text transform="matrix(1 0 0 1 56.0623 253.2527)"><tspan x="0" y="0" class="st5 st27 st26">Introduction</tspan><tspan x="0" y="19.2" class="st5 st27 st26">- Simon Levine video</tspan></text>
		</g>
		<polyline class="st28" points="16.83,194.03 16.7,248.59 40.74,248.65 		"/>
		<g>
			<text transform="matrix(1 0 0 1 56.0623 322.5858)"><tspan x="0" y="0" class="st5 st27 st26">Ours Locations</tspan><tspan x="0" y="19.2" class="st5 st27 st26">- Global reach</tspan></text>
			<polyline class="st28" points="16.83,248.48 16.7,317.92 40.74,317.98 			"/>
		</g>
	</g>
</g>
<g>
	<g>
		<rect x="260.35" y="9" class="st22" width="203.42" height="64.72"/>
		<text transform="matrix(1 0 0 1 313.2304 44.6131)" class="st5 st23 st24">Who we are</text>
	</g>
	<rect x="260.42" y="87.59" class="st28" width="203.42" height="55.48"/>
	<text transform="matrix(1 0 0 1 327.643 118.5848)" class="st5 st23 st26">About Us</text>
	<g>
		<text transform="matrix(1 0 0 1 299.7143 197.6385)" class="st5 st27 st26">Our vision</text>
		<polyline class="st28" points="260.49,138.42 260.35,192.97 284.39,193.03 		"/>
	</g>
	<g>
		<text transform="matrix(1 0 0 1 299.7143 249.6385)" class="st5 st27 st26">Our values</text>
		<polyline class="st28" points="260.49,190.42 260.35,244.97 284.39,245.03 		"/>
	</g>
	<g>
		<text transform="matrix(1 0 0 1 299.7143 304.6385)"><tspan x="0" y="0" class="st5 st27 st26">Interactive history </tspan><tspan x="0" y="19.2" class="st5 st27 st26">timeline</tspan></text>
		<polyline class="st28" points="260.49,245.42 260.35,299.97 284.39,300.03 		"/>
	</g>
	<rect x="260.42" y="357.59" class="st28" width="203.42" height="55.48"/>
	<text transform="matrix(1 0 0 1 281.2485 388.5848)" class="st5 st23 st26">Responsible Business</text>
	<g>
		<text transform="matrix(1 0 0 1 299.7143 467.6385)"><tspan x="0" y="0" class="st5 st27 st26">Ours communities</tspan><tspan x="0" y="19.2" class="st5 st27 st26">- Responsible business</tspan></text>
		<polyline class="st28" points="260.49,408.42 260.35,462.97 284.39,463.03 		"/>
	</g>
	<g>
		<text transform="matrix(1 0 0 1 299.7143 533.6385)" class="st5 st27 st26">Our partnerships</text>
		<polyline class="st28" points="260.49,460.42 260.32,527.84 284.36,527.9 		"/>
	</g>
	<g>
		<text transform="matrix(1 0 0 1 299.7143 588.6385)" class="st5 st27 st26">Pro bono work</text>
		<polyline class="st28" points="260.47,522.88 260.31,584.84 284.35,584.9 		"/>
	</g>
</g>
<g>
	<g>
		<g>
			<rect x="502.54" y="9" class="st22" width="203.42" height="64.72"/>
			<text transform="matrix(1 0 0 1 546.6425 44.6131)" class="st5 st23 st24">Working Here</text>
		</g>
		<rect x="502.61" y="87.59" class="st28" width="203.42" height="55.48"/>
		<text transform="matrix(1 0 0 1 550.0985 118.5848)" class="st5 st23 st26">Working Here</text>
		<text transform="matrix(1 0 0 1 541.9047 197.6385)"><tspan x="0" y="0" class="st5 st27 st26">Diversity &amp; inclusion</tspan><tspan x="0" y="19.2" class="st5 st27 st26">- How we live our values</tspan></text>
		<text transform="matrix(1 0 0 1 541.9047 264.1746)"><tspan x="0" y="0" class="st5 st27 st26">Learning &amp; development</tspan><tspan x="0" y="19.2" class="st5 st27 st26">- International </tspan><tspan x="0" y="38.4" class="st5 st27 st26 st29">	</tspan><tspan x="9.95" y="38.4" class="st5 st27 st26">opportunities</tspan><tspan x="0" y="57.6" class="st5 st27 st26">- Our secondments</tspan><tspan x="0" y="76.8" class="st5 st27 st26">- Agile working</tspan><tspan x="0" y="96" class="st5 st27 st26">- Rewards &amp; benefits</tspan></text>
		<polyline class="st28" points="502.19,143.37 502.07,260.37 526.47,260.37 		"/>
		<line class="st28" x1="526.47" y1="204.37" x2="502.07" y2="204.37"/>
	</g>
</g>
<g>
	<polyline class="st28" points="986.47,138.42 985.89,429.84 1009.93,429.9 	"/>
	<g>
		<rect x="986.34" y="9" class="st22" width="203.42" height="64.72"/>
		<text transform="matrix(1 0 0 1 1048.942 44.6131)" class="st5 st23 st24">Locations</text>
	</g>
	<rect x="986.4" y="87.59" class="st28" width="203.42" height="55.48"/>
	<text transform="matrix(1 0 0 1 1051.3097 118.5848)" class="st5 st23 st26">Locations</text>
	<text transform="matrix(1 0 0 1 1025.7018 207.6385)"><tspan x="0" y="0" class="st5 st27 st26">Interactive map</tspan><tspan x="0" y="19.2" class="st5 st27 st26">- Select a country</tspan></text>
	<text transform="matrix(1 0 0 1 1025.7018 264.1746)" class="st5 st27 st26">Overview</text>
	<text transform="matrix(1 0 0 1 1025.7018 319.5106)" class="st5 st27 st26">Our achievments</text>
	<text transform="matrix(1 0 0 1 1025.7018 374.0467)" class="st5 st27 st26">Our people</text>
	<text transform="matrix(1 0 0 1 1025.7018 434.0467)" class="st5 st27 st26">Who we are</text>
	<line class="st28" x1="1010.26" y1="314.37" x2="985.86" y2="314.37"/>
	<line class="st28" x1="1010.26" y1="260.37" x2="985.86" y2="260.37"/>
	<line class="st28" x1="1010.26" y1="204.37" x2="985.86" y2="204.37"/>
	<line class="st28" x1="1010.26" y1="370.37" x2="985.86" y2="370.37"/>
</g>
<g>
	<g>
		<rect x="744.93" y="982.59" class="st28" width="203.42" height="55.48"/>
		<text transform="matrix(1 0 0 1 795.1793 1013.5848)" class="st5 st23 st26">Early Careers</text>
		<g>
			<text transform="matrix(1 0 0 1 784.2271 1092.6384)" class="st5 st27 st26">Our experience</text>
			<polyline class="st28" points="745,1033.42 744.86,1087.97 768.9,1088.03 			"/>
		</g>
		<g>
			<text transform="matrix(1 0 0 1 784.2271 1158.6384)" class="st5 st27 st26">Our graduates</text>
			<polyline class="st28" points="745,1085.42 744.83,1152.84 768.87,1152.9 			"/>
		</g>
	</g>
	<g>
		<g>
			<rect x="744.83" y="9" class="st22" width="203.42" height="64.72"/>
			<text transform="matrix(1 0 0 1 815.5916 44.6131)" class="st5 st23 st24">Careers</text>
		</g>
		<g>
			<rect x="757.23" y="87.59" class="st28" width="191.08" height="55.48"/>
			<text transform="matrix(1 0 0 1 770.4338 119.8956)" class="st5 st23 st26">Experienced Lawyers</text>
		</g>
		<text transform="matrix(1 0 0 1 784.2597 197.6385)"><tspan x="0" y="0" class="st5 st27 st26">(</tspan><tspan x="5.66" y="0" class="st5 st50 st26">Law Practice Groups</tspan><tspan x="150.39" y="0" class="st5 st27 st26">)</tspan><tspan x="0" y="19.2" class="st5 st27 st26 st51">	</tspan><tspan x="7.17" y="19.2" class="st5 st27 st26">- Corporate </tspan><tspan x="0" y="38.4" class="st5 st27 st26 st51">	</tspan><tspan x="7.17" y="38.4" class="st5 st27 st26">- Employment </tspan><tspan x="0" y="57.6" class="st5 st27 st26 st51">	</tspan><tspan x="7.17" y="57.6" class="st5 st27 st26">- Finance and Projects </tspan><tspan x="0" y="76.8" class="st5 st27 st26 st51">	</tspan><tspan x="7.17" y="76.8" class="st5 st27 st26 st52">	</tspan><tspan x="17.51" y="76.8" class="st5 st27 st26">&amp; Restructuring  </tspan><tspan x="0" y="96" class="st5 st27 st26 st51">	</tspan><tspan x="7.17" y="96" class="st5 st27 st26">- Intellectual Property </tspan><tspan x="0" y="115.2" class="st5 st27 st26 st51">	</tspan><tspan x="7.17" y="115.2" class="st5 st27 st26 st52">	</tspan><tspan x="17.51" y="115.2" class="st5 st27 st26">&amp; Technology </tspan><tspan x="0" y="134.4" class="st5 st27 st26 st51">	</tspan><tspan x="7.17" y="134.4" class="st5 st27 st26">- Litigation &amp; Regulatory </tspan><tspan x="0" y="153.6" class="st5 st27 st26 st51">	</tspan><tspan x="7.17" y="153.6" class="st5 st27 st26">- Real Estate </tspan><tspan x="0" y="172.8" class="st5 st27 st26 st51">	</tspan><tspan x="7.17" y="172.8" class="st5 st27 st26">- Tax</tspan></text>
		<polyline class="st28" points="782.73,190.9 745.79,190.84 745.02,115.85 756.91,115.87 		"/>
		<polyline class="st28" points="784.23,364.9 776.54,364.84 776.02,190.85 777.23,190.87 		"/>
		<text transform="matrix(1 0 0 1 794.1721 434.6385)" class="st5 st27 st26">Our experience</text>
		<text transform="matrix(1 0 0 1 794.1721 490.1746)" class="st5 st27 st26">Our people</text>
		<line class="st28" x1="778.73" y1="430.37" x2="754.33" y2="430.37"/>
		<line class="st28" x1="776.02" y1="210.79" x2="784.23" y2="210.79"/>
		<line class="st28" x1="776.02" y1="231.79" x2="784.23" y2="231.79"/>
		<line class="st28" x1="776.02" y1="249.79" x2="784.23" y2="249.79"/>
		<line class="st28" x1="776.02" y1="288.79" x2="784.23" y2="288.79"/>
		<line class="st28" x1="776.02" y1="327.79" x2="784.23" y2="327.79"/>
		<line class="st28" x1="776.02" y1="345.79" x2="784.23" y2="345.79"/>
		<polyline class="st28" points="776.73,272.73 755.23,272.73 754.33,486.87 779.23,486.87 		"/>
	</g>
	<g>
		<g>
			<rect x="757.23" y="532.59" class="st28" width="191.08" height="55.48"/>
			<text transform="matrix(1 0 0 1 764.8792 564.8956)" class="st5 st23 st26">Business Professionals </text>
		</g>
		<text transform="matrix(1 0 0 1 784.2597 642.6385)"><tspan x="0" y="0" class="st5 st27 st26">(</tspan><tspan x="5.66" y="0" class="st5 st50 st26">Business Services</tspan><tspan x="126.97" y="0" class="st5 st27 st26">)</tspan><tspan x="0" y="19.2" class="st5 st27 st26 st51">	</tspan><tspan x="7.17" y="19.2" class="st5 st27 st26">- Human Resources </tspan><tspan x="0" y="38.4" class="st5 st27 st26 st51">	</tspan><tspan x="7.17" y="38.4" class="st5 st27 st26">- IT </tspan><tspan x="0" y="57.6" class="st5 st27 st26 st51">	</tspan><tspan x="7.17" y="57.6" class="st5 st27 st26">- Finance  </tspan><tspan x="0" y="76.8" class="st5 st27 st26 st51">	</tspan><tspan x="7.17" y="76.8" class="st5 st27 st26">- Marketing </tspan><tspan x="0" y="96" class="st5 st27 st26 st51">	</tspan><tspan x="7.17" y="96" class="st5 st27 st26 st52">	</tspan><tspan x="17.51" y="96" class="st5 st27 st26">&amp; Business</tspan><tspan x="99.69" y="96" class="st5 st27 st26"> </tspan><tspan x="103.61" y="96" class="st5 st27 st26">Development </tspan><tspan x="0" y="115.2" class="st5 st27 st26 st51">	</tspan><tspan x="7.17" y="115.2" class="st5 st27 st26">- Property &amp; workplace </tspan><tspan x="0" y="134.4" class="st5 st27 st26 st51">	</tspan><tspan x="7.17" y="134.4" class="st5 st27 st26">- Secretarial Support </tspan><tspan x="0" y="153.6" class="st5 st27 st26 st51">	</tspan><tspan x="7.17" y="153.6" class="st5 st27 st26">- Legal, Risk Management </tspan><tspan x="0" y="172.8" class="st5 st27 st26 st51">	</tspan><tspan x="7.17" y="172.8" class="st5 st27 st26 st52">	</tspan><tspan x="17.51" y="172.8" class="st5 st27 st26">&amp; Compliance</tspan></text>
		<polyline class="st28" points="782.73,635.9 745.79,635.84 745.02,560.85 756.91,560.87 		"/>
		<polyline class="st28" points="784.28,791.88 776.59,791.82 776.02,635.85 777.23,635.87 		"/>
		<text transform="matrix(1 0 0 1 794.1721 879.6385)" class="st5 st27 st26">Our experience</text>
		<text transform="matrix(1 0 0 1 794.1721 935.1746)" class="st5 st27 st26">Our people</text>
		<line class="st28" x1="778.73" y1="875.37" x2="754.33" y2="875.37"/>
		<line class="st28" x1="776.02" y1="655.79" x2="784.23" y2="655.79"/>
		<line class="st28" x1="776.02" y1="676.79" x2="784.23" y2="676.79"/>
		<line class="st28" x1="776.02" y1="694.79" x2="784.23" y2="694.79"/>
		<line class="st28" x1="776.02" y1="714.79" x2="784.23" y2="714.79"/>
		<line class="st28" x1="776.02" y1="772.79" x2="784.23" y2="772.79"/>
		<line class="st28" x1="776.02" y1="753.79" x2="784.23" y2="753.79"/>
		<polyline class="st28" points="776.73,717.73 755.23,717.73 754.33,931.87 779.23,931.87 		"/>
	</g>
</g>
</svg>
