<?xml version="1.0" encoding="utf-8"?>
<!-- Generator: Adobe Illustrator 23.0.2, SVG Export Plug-In . SVG Version: 6.00 Build 0)  -->
<svg version="1.1" id="Layer_1" xmlns="http://www.w3.org/2000/svg" xmlns:xlink="http://www.w3.org/1999/xlink" x="0px" y="0px"
	 viewBox="0 0 1130 1018" style="enable-background:new 0 0 1130 1018;" xml:space="preserve">
<style type="text/css">
	.st0{display:none;stroke:#FFFFFF;stroke-miterlimit:10;}
	.st1{display:none;}
	.st2{display:inline;fill:none;stroke:#CC2899;stroke-width:3.1921;stroke-miterlimit:10;}
	.st3{display:inline;}
	.st4{fill:#CC2899;}
	.st5{fill:#FFFFFF;}
	.st6{fill:none;stroke:#FFFFFF;stroke-miterlimit:10;}
	.st7{fill:none;stroke:#323232;stroke-width:2;stroke-miterlimit:10;}
	.st8{fill:#323232;}
	.st9{fill:none;stroke:#323232;stroke-width:2.0932;stroke-miterlimit:10;}
	
		.st10{display:inline;fill:none;stroke:#CC2899;stroke-width:2;stroke-linecap:round;stroke-linejoin:round;stroke-miterlimit:10;stroke-dasharray:4;}
	.st11{fill:none;stroke:#323232;stroke-width:2.3557;stroke-miterlimit:10;}
	.st12{fill:none;stroke:#323232;stroke-width:2.162;stroke-miterlimit:10;}
	.st13{fill:none;}
	
		.st14{fill:none;stroke:#CC2899;stroke-width:2;stroke-linecap:round;stroke-linejoin:round;stroke-miterlimit:10;stroke-dasharray:4;}
	.st15{fill:none;stroke:#323232;stroke-width:2.2412;stroke-miterlimit:10;}
	.st16{fill:#F2F2F2;}
	.st17{fill:none;stroke:#000000;stroke-width:1.6622;stroke-miterlimit:10;}
	.st18{fill:none;stroke:#FFFFFF;stroke-width:20;stroke-miterlimit:10;}
	
		.st19{fill:none;stroke:#000000;stroke-width:2;stroke-linecap:round;stroke-linejoin:round;stroke-miterlimit:10;stroke-dasharray:4;}
	.st20{fill:none;stroke:#007CF9;stroke-width:2;stroke-miterlimit:10;}
	.st21{fill:none;stroke:#CC2899;stroke-width:3;stroke-miterlimit:10;}
	.st22{opacity:0.99;fill:#212529;}
	.st23{font-family:'CorporateA-Regular';}
	.st24{font-size:17px;}
	.st25{fill:#00ADEF;}
	.st26{font-size:16px;}
	.st27{font-family:'CorporateS-Regular';}
	.st28{fill:none;stroke:#00ADEF;stroke-miterlimit:10;}
</style>
<rect x="-394.71" y="0.37" class="st0" width="1920" height="850"/>
<g>
	<g>
		<rect x="907.79" y="9" class="st22" width="203.42" height="64.72"/>
		<g>
			<text transform="matrix(1 0 0 1 961.3018 44.6131)" class="st5 st23 st24">Opportunities</text>
		</g>
	</g>
	<g>
		<rect x="907.86" y="87.59" class="st25" width="203.42" height="55.48"/>
		<text transform="matrix(1 0 0 1 973.1191 118.5848)" class="st5 st23 st26">Apply Now</text>
		<text transform="matrix(1 0 0 1 947.1553 197.6385)" class="st5 st27 st26">External ATS - Daimler</text>
		<polyline class="st28" points="907.93,138.42 907.79,192.97 931.83,193.03 		"/>
	</g>
	<g>
		<rect x="684.86" y="9" class="st22" width="203.42" height="64.72"/>
		<g>
			<text transform="matrix(1 0 0 1 739.1611 44.6131)" class="st5 st23 st24">Early Careers</text>
		</g>
	</g>
	<rect x="684.93" y="87.59" class="st28" width="203.42" height="55.48"/>
	<text transform="matrix(1 0 0 1 742.0176 118.5848)" class="st5 st23 st26">Early Careers</text>
	<text transform="matrix(1 0 0 1 724.2261 197.6385)"><tspan x="0" y="0" class="st5 st27 st26">Apprenticeships</tspan><tspan x="0" y="19.2" class="st5 st27 st26">- People stories</tspan></text>
	<polyline class="st28" points="684.99,138.42 684.39,380.81 708.43,380.87 	"/>
	<text transform="matrix(1 0 0 1 724.2261 264.1746)" class="st5 st27 st26">Our Vision &amp; Culture</text>
	<text transform="matrix(1 0 0 1 724.2261 311.5106)"><tspan x="0" y="0" class="st5 st27 st26">Industrial placements</tspan><tspan x="0" y="19.2" class="st5 st27 st26">- People stories</tspan></text>
	<text transform="matrix(1 0 0 1 724.2261 378.0467)"><tspan x="0" y="0" class="st5 st27 st26">Graduate schemes</tspan><tspan x="0" y="19.2" class="st5 st27 st26">- People stories</tspan></text>
	<g>
		<g>
			<rect x="18.99" y="9" class="st22" width="203.42" height="64.72"/>
			<g>
				<text transform="matrix(1 0 0 1 100.0891 44.6131)" class="st5 st23 st24">Home</text>
			</g>
		</g>
		<rect x="18.79" y="87.59" class="st28" width="203.42" height="55.48"/>
		<text transform="matrix(1 0 0 1 73.04 118.5848)" class="st5 st23 st26">Opening video</text>
		<text transform="matrix(1 0 0 1 58.0883 197.6385)" class="st5 st27 st26">Short introduction  video</text>
		<polyline class="st28" points="18.86,138.42 18.72,192.97 42.76,193.03 		"/>
		<text transform="matrix(1 0 0 1 58.0883 570.6385)"><tspan x="0" y="0" class="st5 st27 st26">Social Feed</tspan><tspan x="0" y="19.2" class="st5 st27 st26">- Instagram</tspan><tspan x="0" y="38.4" class="st5 st27 st26">- Twitter</tspan><tspan x="0" y="57.6" class="st5 st27 st26">- Linkedin</tspan></text>
		<polyline class="st28" points="18.86,486.87 18.72,565.97 42.76,566.03 		"/>
		<rect x="18.86" y="263.59" class="st28" width="203.42" height="55.48"/>
		<text transform="matrix(1 0 0 1 76.252 294.5848)" class="st5 st23 st26">Landing page</text>
		<text transform="matrix(1 0 0 1 58.1559 373.6385)" class="st5 st27 st26">Our Values</text>
		<polyline class="st28" points="18.93,314.42 18.79,368.97 42.83,369.03 		"/>
		<g>
			<text transform="matrix(1 0 0 1 58.1559 428.2527)"><tspan x="0" y="0" class="st5 st27 st26">Powered by Our People</tspan><tspan x="0" y="19.2" class="st5 st27 st26">- People stories</tspan></text>
		</g>
		<polyline class="st28" points="18.93,369.03 18.79,423.59 42.83,423.65 		"/>
		<g>
			<text transform="matrix(1 0 0 1 58.1559 497.5858)"><tspan x="0" y="0" class="st5 st27 st26">Where do I fit?</tspan><tspan x="0" y="19.2" class="st5 st27 st26">- interactive culture-fit quiz</tspan></text>
			<polyline class="st28" points="18.93,423.48 18.79,492.92 42.83,492.98 			"/>
		</g>
	</g>
	<g>
		<g>
			<rect x="240.9" y="9" class="st22" width="203.42" height="64.72"/>
			<g>
				<text transform="matrix(1 0 0 1 294.1631 44.6131)" class="st5 st23 st24">Our Company</text>
			</g>
		</g>
		<rect x="240.97" y="87.59" class="st28" width="203.42" height="55.48"/>
		<text transform="matrix(1 0 0 1 297.0805 118.5848)" class="st5 st23 st26">Our Company</text>
		<g>
			<text transform="matrix(1 0 0 1 280.2651 197.6385)"><tspan x="0" y="0" class="st5 st27 st26">Introduction to the</tspan><tspan x="0" y="19.2" class="st5 st27 st26">Daimler family</tspan></text>
			<polyline class="st28" points="241.04,138.42 240.9,192.97 264.94,193.03 			"/>
		</g>
		<g>
			<text transform="matrix(1 0 0 1 280.2651 249.6385)" class="st5 st27 st26">Interactive history timeline</text>
			<polyline class="st28" points="241.04,190.42 240.9,244.97 264.94,245.03 			"/>
		</g>
		<g>
			<text transform="matrix(1 0 0 1 280.2651 304.6385)"><tspan x="0" y="0" class="st5 st27 st26">CSR - Making change </tspan><tspan x="0" y="19.2" class="st5 st27 st26">that matters</tspan></text>
			<polyline class="st28" points="241.04,245.42 240.9,299.97 264.94,300.03 			"/>
		</g>
		<g>
			<text transform="matrix(1 0 0 1 280.2651 371.6385)"><tspan x="0" y="0" class="st5 st27 st26">Learning &amp; Development</tspan><tspan x="0" y="19.2" class="st5 st27 st26">- Video testimonials</tspan></text>
			<polyline class="st28" points="241.04,300.87 240.9,366.97 264.94,367.03 			"/>
		</g>
	</g>
	<g>
		<g>
			<rect x="462.88" y="9" class="st22" width="203.42" height="64.72"/>
			<g>
				<text transform="matrix(1 0 0 1 473.83 44.6131)" class="st5 st23 st24">Discover us (wheel menu)</text>
			</g>
		</g>
		<g>
			<rect x="475.29" y="87.59" class="st28" width="191.08" height="55.48"/>
			<text transform="matrix(1 0 0 1 504.5073 119.8956)" class="st5 st23 st26">Mercedes-benz Cars</text>
		</g>
		<g>
			<rect x="475.29" y="158.07" class="st28" width="191.08" height="55.48"/>
			<text transform="matrix(1 0 0 1 502.8315 190.3737)" class="st5 st23 st26">Mercedes-benz Vans</text>
		</g>
		<g>
			<rect x="475.29" y="228.55" class="st28" width="191.08" height="55.48"/>
			<text transform="matrix(1 0 0 1 496.7416 260.8517)" class="st5 st23 st26">Mercedes-benz Trucks</text>
		</g>
		<g>
			<rect x="475.29" y="299.03" class="st28" width="191.08" height="55.48"/>
			<text transform="matrix(1 0 0 1 521.476 322.3299)"><tspan x="0" y="0" class="st5 st23 st26">Mercedes-benz </tspan><tspan x="-5.34" y="19.2" class="st5 st23 st26">Parts &amp; Logistics</tspan></text>
		</g>
		<g>
			<rect x="475.29" y="369.51" class="st28" width="191.08" height="55.48"/>
			<text transform="matrix(1 0 0 1 521.476 392.808)"><tspan x="0" y="0" class="st5 st23 st26">Mercedes-benz </tspan><tspan x="-10.69" y="19.2" class="st5 st23 st26">Financial Services</tspan></text>
		</g>
		<g>
			<rect x="475.29" y="439.98" class="st28" width="191.08" height="55.48"/>
			<text transform="matrix(1 0 0 1 521.476 463.2861)"><tspan x="0" y="0" class="st5 st23 st26">Mercedes-benz </tspan><tspan x="-11.85" y="19.2" class="st5 st23 st26">Daimler Insurance</tspan></text>
		</g>
		<g>
			<text transform="matrix(1 0 0 1 502.3136 559.6385)" class="st5 st27 st26">Division introduction</text>
			<polyline class="st28" points="486.99,555.03 462.95,554.97 463.08,115.87 474.97,115.87 			"/>
			<text transform="matrix(1 0 0 1 502.3136 614.2527)"><tspan x="0" y="0" class="st5 st27 st26">Powered by Our People</tspan><tspan x="0" y="19.2" class="st5 st27 st26">- People stories</tspan></text>
			<polyline class="st28" points="463.08,555.03 462.95,609.59 486.99,609.65 			"/>
			<g>
				<text transform="matrix(1 0 0 1 502.3136 684.5858)" class="st5 st27 st26">Our Vision &amp; Culture</text>
				<polyline class="st28" points="463.08,610.48 462.95,679.92 486.99,679.98 				"/>
			</g>
		</g>
		<g>
			<rect x="474.79" y="709.59" class="st28" width="191.65" height="55.48"/>
			<text transform="matrix(1 0 0 1 515.3751 731.5848)"><tspan x="0" y="0" class="st5 st23 st26">Mercedes-benz </tspan><tspan x="-6.66" y="19.2" class="st5 st23 st26">Retail &amp; Network</tspan></text>
			<g>
				<text transform="matrix(1 0 0 1 502.3135 819.6385)"><tspan x="0" y="0" class="st5 st27 st26">Retail &amp; Network </tspan><tspan x="0" y="19.2" class="st5 st27 st26">Introduction</tspan></text>
				<polyline class="st28" points="486.99,815.03 462.95,814.97 463.08,735.87 474.79,735.87 				"/>
			</g>
			<g>
				<text transform="matrix(1 0 0 1 502.3135 872.6385)" class="st5 st27 st26">Interactive locations map</text>
				<polyline class="st28" points="463.08,812.42 462.95,866.97 486.99,867.03 				"/>
			</g>
			<g>
				<text transform="matrix(1 0 0 1 502.3135 926.6385)"><tspan x="0" y="0" class="st5 st27 st26">Powered by Our People</tspan><tspan x="0" y="19.2" class="st5 st27 st26">- People stories</tspan></text>
				<polyline class="st28" points="463.08,867.42 462.95,921.97 486.99,922.03 				"/>
			</g>
			<g>
				<text transform="matrix(1 0 0 1 502.3135 993.6385)" class="st5 st27 st26">Our Vision &amp; Culture</text>
				<polyline class="st28" points="463.08,922.87 462.95,988.97 486.99,989.03 				"/>
			</g>
		</g>
		<line class="st28" x1="475.29" y1="185.81" x2="463.06" y2="185.81"/>
		<line class="st28" x1="475.29" y1="255.81" x2="463.06" y2="255.81"/>
		<line class="st28" x1="475.29" y1="326.81" x2="463.06" y2="326.81"/>
		<line class="st28" x1="475.29" y1="396.81" x2="463.06" y2="396.81"/>
		<line class="st28" x1="475.29" y1="467.81" x2="463.06" y2="467.81"/>
	</g>
	<line class="st28" x1="708.79" y1="314.37" x2="684.39" y2="314.37"/>
	<line class="st28" x1="708.79" y1="260.37" x2="684.39" y2="260.37"/>
	<line class="st28" x1="708.79" y1="204.37" x2="684.39" y2="204.37"/>
</g>
</svg>
