<?xml version="1.0" encoding="utf-8"?>
<!-- Generator: Adobe Illustrator 23.0.3, SVG Export Plug-In . SVG Version: 6.00 Build 0)  -->
<svg version="1.1" id="Layer_1" xmlns="http://www.w3.org/2000/svg" xmlns:xlink="http://www.w3.org/1999/xlink" x="0px" y="0px"
	 viewBox="0 0 1386 850" style="enable-background:new 0 0 1386 850;" xml:space="preserve">
<style type="text/css">
	.st0{display:none;stroke:#FFFFFF;stroke-miterlimit:10;}
	.st1{display:none;}
	.st2{display:inline;fill:none;stroke:#CC2899;stroke-width:3.1921;stroke-miterlimit:10;}
	.st3{display:inline;}
	.st4{fill:#CC2899;}
	.st5{fill:#0032A0;}
	.st6{fill:#E90596;}
	.st7{fill:#FFFFFF;}
	.st8{font-family:'Oswald-SemiBold';}
	.st9{font-size:17px;}
	.st10{fill:none;stroke:#0032A0;stroke-width:2;stroke-miterlimit:10;}
	.st11{font-family:'Oswald-Medium';}
	.st12{font-size:16px;}
	.st13{font-family:'Oswald-Regular';}
	.st14{font-family:'Oswald-Light';}
	.st15{letter-spacing:7;}
	.st16{font-size:17.5681px;}
	.st17{font-size:16.6434px;}
	.st18{letter-spacing:8;}
	.st19{fill:none;stroke:#323232;stroke-width:2;stroke-miterlimit:10;}
	.st20{fill:#323232;}
	.st21{fill:none;stroke:#323232;stroke-width:2.0932;stroke-miterlimit:10;}
	
		.st22{display:inline;fill:none;stroke:#CC2899;stroke-width:2;stroke-linecap:round;stroke-linejoin:round;stroke-miterlimit:10;stroke-dasharray:4;}
	.st23{fill:none;stroke:#323232;stroke-width:2.3557;stroke-miterlimit:10;}
	.st24{fill:none;stroke:#323232;stroke-width:2.162;stroke-miterlimit:10;}
	.st25{fill:none;}
	
		.st26{fill:none;stroke:#CC2899;stroke-width:2;stroke-linecap:round;stroke-linejoin:round;stroke-miterlimit:10;stroke-dasharray:4;}
	.st27{fill:none;stroke:#323232;stroke-width:2.2412;stroke-miterlimit:10;}
	.st28{fill:#F2F2F2;}
	.st29{fill:none;stroke:#000000;stroke-width:1.6622;stroke-miterlimit:10;}
	.st30{fill:none;stroke:#FFFFFF;stroke-width:20;stroke-miterlimit:10;}
	
		.st31{fill:none;stroke:#000000;stroke-width:2;stroke-linecap:round;stroke-linejoin:round;stroke-miterlimit:10;stroke-dasharray:4;}
	.st32{fill:none;stroke:#007CF9;stroke-width:2;stroke-miterlimit:10;}
	.st33{fill:none;stroke:#CC2899;stroke-width:3;stroke-miterlimit:10;}
	.st34{fill:#16243F;}
	.st35{fill:#0073CF;}
	.st36{fill:none;stroke:#0073CF;stroke-miterlimit:10;}
	.st37{stroke:#FFFFFF;stroke-miterlimit:10;}
	.st38{opacity:0.99;fill:#212529;}
	.st39{fill:#00ADEF;}
	.st40{fill:none;stroke:#00ADEF;stroke-miterlimit:10;}
	.st41{fill:none;stroke:#000000;stroke-width:2;stroke-miterlimit:10;}
	.st42{fill:none;stroke:#000000;stroke-width:2.0324;stroke-miterlimit:10;}
	.st43{fill:none;stroke:#CC2899;stroke-width:3.1921;stroke-miterlimit:10;}
	.st44{fill:none;stroke:#000000;stroke-width:2.07;stroke-miterlimit:10;}
	.st45{fill:none;stroke:#010101;stroke-width:2;stroke-miterlimit:10;}
	.st46{fill:#010101;}
	.st47{fill:none;stroke:#000000;stroke-width:1.1461;stroke-miterlimit:10;}
	.st48{fill:none;stroke:#000000;stroke-linecap:round;stroke-linejoin:round;}
	.st49{fill:none;stroke:#000000;stroke-linecap:round;stroke-linejoin:round;stroke-dasharray:3.9939,3.9939;}
	.st50{fill:none;stroke:#000000;stroke-linecap:round;stroke-linejoin:round;stroke-miterlimit:10;stroke-dasharray:4;}
	.st51{fill:#00A551;}
	.st52{fill:#FCBE04;}
	.st53{fill:#D9DC42;}
	.st54{fill:#E62A4F;}
	.st55{fill:#999999;}
	.st56{fill:#E6E6E6;}
</style>
<rect x="-267" y="-115" class="st1" width="1920" height="1080"/>
<g>
	<g>
		<g>
			<g>
				<rect x="32.49" y="40" class="st5" width="203.42" height="64.72"/>
				<path class="st6" d="M235.91,104.72l-101.6,0.27l-101.82,0.15l-0.42,0l0-0.42L31.99,40l0-0.5l0.5,0l203.42,0.26l0.24,0l0,0.24
					L235.91,104.72z M235.91,104.72L235.67,40l0.24,0.24L32.49,40.5l0.5-0.5l-0.08,64.72l-0.42-0.42l101.6,0.15L235.91,104.72z"/>
			</g>
			<g>
				<text transform="matrix(1 0 0 1 114.3742 77.6131)" class="st7 st8 st9">Home</text>
			</g>
		</g>
		<rect x="32.29" y="118.59" class="st10" width="203.42" height="55.48"/>
		<text transform="matrix(1 0 0 1 59.6264 149.5848)" class="st7 st11 st12">Your City, Your Location</text>
		<text transform="matrix(1 0 0 1 71.5883 228.6385)"><tspan x="0" y="0" class="st7 st13 st12">Stories of your </tspan><tspan x="0" y="19.2" class="st7 st13 st12">London borough</tspan></text>
		<polyline class="st10" points="32.36,169.42 32.22,223.97 56.26,224.03 		"/>
	</g>
	<g>
		<g>
			<g>
				<rect x="476.38" y="40" class="st5" width="203.42" height="64.72"/>
				<path class="st6" d="M679.8,104.72l-101.6,0.27l-101.82,0.15l-0.42,0l0-0.42L475.88,40l0-0.5l0.5,0l203.42,0.26l0.24,0l0,0.24
					L679.8,104.72z M679.8,104.72L679.56,40l0.24,0.24L476.38,40.5l0.5-0.5l-0.08,64.72l-0.42-0.42l101.6,0.15L679.8,104.72z"/>
			</g>
			<g>
				<text transform="matrix(1 0 0 1 524.7969 77.6131)" class="st7 st8 st9">Our Decisions</text>
			</g>
		</g>
		<g>
			<rect x="476.45" y="118.59" class="st10" width="203.42" height="55.48"/>
			<text transform="matrix(1 0 0 1 543.6631 139.0428)"><tspan x="0" y="0" class="st7 st11 st12">Making the </tspan><tspan x="-9.19" y="19.2" class="st7 st11 st12">right decisons</tspan></text>
			<text transform="matrix(1 0 0 1 515.7456 228.6385)"><tspan x="0" y="0" class="st7 st13 st12">Decision Makers</tspan><tspan x="0" y="19.2" class="st7 st14 st12">- Interactive scenario</tspan><tspan x="0" y="38.4" class="st7 st14 st12 st15">	</tspan><tspan x="10.75" y="38.4" class="st7 st14 st12">based game</tspan></text>
			<polyline class="st10" points="476.52,169.42 476.38,223.97 500.42,224.03 			"/>
		</g>
	</g>
	<g>
		<g>
			<g>
				<rect x="923.4" y="40" class="st5" width="203.42" height="64.72"/>
				<path class="st6" d="M1126.82,104.72l-101.6,0.27l-101.82,0.15l-0.42,0l0-0.42L922.9,40l0-0.5l0.5,0l203.42,0.26l0.24,0l0,0.24
					L1126.82,104.72z M1126.82,104.72L1126.58,40l0.24,0.24L923.4,40.5l0.5-0.5l-0.08,64.72l-0.42-0.42l101.6,0.15L1126.82,104.72z"
					/>
			</g>
			<g>
				<text transform="matrix(1 0 0 1 982.4985 77.6131)" class="st7 st8 st9">Our Legacy</text>
			</g>
		</g>
		<g>
			<rect x="923.47" y="118.59" class="st10" width="203.42" height="55.48"/>
			<text transform="matrix(1 0 0 1 970.4092 139.0428)"><tspan x="0" y="0" class="st7 st11 st12">History of Women </tspan><tspan x="22.59" y="19.2" class="st7 st11 st12">in The Met</tspan></text>
			<text transform="matrix(1 0 0 1 962.7637 228.6385)"><tspan x="0" y="0" class="st7 st13 st12">History Timeline</tspan><tspan x="0" y="19.2" class="st7 st14 st12">- 100 years of women in </tspan><tspan x="0" y="38.4" class="st7 st14 st12 st15">	</tspan><tspan x="10.62" y="38.4" class="st7 st14 st12">The Metropolitan Police</tspan></text>
			<polyline class="st10" points="923.53,169.42 923.4,223.97 947.44,224.03 			"/>
		</g>
	</g>
	<g>
		<g>
			<g>
				<rect x="1150.29" y="40" class="st5" width="203.42" height="64.72"/>
				<path class="st6" d="M1353.71,104.72l-101.6,0.27l-101.82,0.15l-0.42,0l0-0.42L1149.79,40l0-0.5l0.5,0l203.42,0.26l0.24,0
					l0,0.24L1353.71,104.72z M1353.71,104.72L1353.47,40l0.24,0.24l-203.42,0.26l0.5-0.5l-0.08,64.72l-0.42-0.42l101.6,0.15
					L1353.71,104.72z"/>
			</g>
			<g>
				<text transform="matrix(1 0 0 1 1225.7275 77.6131)" class="st7 st8 st9">Join Us</text>
			</g>
		</g>
		<g>
			<rect x="1150.36" y="118.59" class="st10" width="203.42" height="55.48"/>
			<text transform="matrix(1 0 0 1 1212.5171 149.5848)" class="st7 st11 st12">Opporunities</text>
			<text transform="matrix(1 0 0 1 1189.6553 228.6385)" class="st7 st13 st12">Apply Now</text>
			<polyline class="st10" points="1150.43,169.42 1150.29,223.97 1174.33,224.03 			"/>
		</g>
		<g>
			<rect x="1150.36" y="278.56" class="st10" width="203.42" height="55.48"/>
			<text transform="matrix(1 0 0 1 1181.0156 312.5457)" class="st7 st11 st16">Recruitment Process</text>
			<text transform="matrix(1 0 0 1 1189.6553 388.6014)" class="st7 st13 st17">Am I eligible?</text>
			<polyline class="st10" points="1150.43,329.38 1150.29,383.93 1174.33,383.99 			"/>
			<text transform="matrix(1 0 0 1 1189.6553 444.0799)" class="st7 st13 st12">Initial stages</text>
			<polyline class="st10" points="1150.43,384.86 1150.29,439.41 1174.33,439.47 			"/>
		</g>
	</g>
	<g>
		<g>
			<g>
				<rect x="698.36" y="40" class="st5" width="203.42" height="64.72"/>
				<path class="st6" d="M901.78,104.72l-101.6,0.27l-101.82,0.15l-0.42,0l0-0.42L697.86,40l0-0.5l0.5,0l203.42,0.26l0.24,0l0,0.24
					L901.78,104.72z M901.78,104.72L901.54,40l0.24,0.24L698.36,40.5l0.5-0.5l-0.08,64.72l-0.42-0.42l101.6,0.15L901.78,104.72z"/>
			</g>
			<g>
				<text transform="matrix(1 0 0 1 769.8203 77.6131)" class="st7 st8 st9">Our Met</text>
			</g>
		</g>
		<rect x="698.43" y="118.59" class="st10" width="203.42" height="55.48"/>
		<text transform="matrix(1 0 0 1 739.7397 149.5848)" class="st7 st11 st12">Working for London</text>
		<text transform="matrix(1 0 0 1 737.7261 228.6385)" class="st7 st13 st12">Our Vision and Values</text>
		<rect x="698.63" y="415.86" class="st10" width="203.42" height="55.48"/>
		<text transform="matrix(1 0 0 1 739.7456 449.8533)" class="st7 st13 st16">Career Progression</text>
		<polyline class="st10" points="698.5,169.42 698.36,223.97 722.4,224.03 		"/>
		<g>
			<text transform="matrix(1 0 0 1 737.7261 517.619)" class="st7 st13 st12">Probation</text>
			<polyline class="st10" points="698.5,458.4 698.36,512.95 722.4,513.01 			"/>
		</g>
		<g>
			<text transform="matrix(1 0 0 1 737.7261 572.0164)" class="st7 st13 st12">An on-going career</text>
			<polyline class="st10" points="698.5,512.8 698.36,567.35 722.4,567.41 			"/>
		</g>
		<rect x="698.63" y="608.19" class="st10" width="203.42" height="55.48"/>
		<text transform="matrix(1 0 0 1 731.5239 642.1785)" class="st7 st13 st16">Rewards and Benefits</text>
		<g>
			<text transform="matrix(1 0 0 1 737.7261 722.8885)"><tspan x="0" y="0" class="st7 st13 st12">What We Offer</tspan><tspan x="0" y="19.2" class="st7 st14 st12">- Flexible workin</tspan><tspan x="89.09" y="19.2" class="st7 st14 st12">g</tspan><tspan x="0" y="38.4" class="st7 st14 st12">- Training</tspan><tspan x="0" y="57.6" class="st7 st14 st12">- Support and advice</tspan><tspan x="0" y="76.8" class="st7 st14 st12">- Travel</tspan></text>
			<polyline class="st10" points="698.5,663.67 698.36,718.22 722.4,718.28 			"/>
		</g>
		<text transform="matrix(1 0 0 1 737.7261 283.2527)"><tspan x="0" y="0" class="st7 st13 st12">Diveristy and Inclusion</tspan><tspan x="0" y="19.2" class="st7 st14 st12">- Women in The Met</tspan></text>
		<polyline class="st10" points="698.5,224.03 698.36,278.59 722.4,278.65 		"/>
		<g>
			<text transform="matrix(1 0 0 1 737.7261 353.5858)"><tspan x="0" y="0" class="st7 st13 st12">Working In  </tspan><tspan x="0" y="19.2" class="st7 st13 st12">The Community</tspan></text>
			<polyline class="st10" points="698.5,279.48 698.36,348.92 722.4,348.98 			"/>
		</g>
	</g>
	<g>
		<g>
			<g>
				<rect x="254.4" y="40" class="st5" width="203.42" height="64.72"/>
				<path class="st6" d="M457.82,104.72l-101.6,0.27l-101.82,0.15l-0.42,0l0-0.42L253.9,40l0-0.5l0.5,0l203.42,0.26l0.24,0l0,0.24
					L457.82,104.72z M457.82,104.72L457.58,40l0.24,0.24L254.4,40.5l0.5-0.5l-0.08,64.72l-0.42-0.42l101.6,0.15L457.82,104.72z"/>
			</g>
			<g>
				<text transform="matrix(1 0 0 1 310.874 77.6131)" class="st7 st8 st9">Our Stories</text>
			</g>
		</g>
		<rect x="254.47" y="118.59" class="st10" width="203.42" height="55.48"/>
		<text transform="matrix(1 0 0 1 286.4355 149.5848)" class="st7 st11 st12">Woman in your London</text>
		<text transform="matrix(1 0 0 1 293.7651 228.6385)"><tspan x="0" y="0" class="st7 st13 st12">Your London</tspan><tspan x="0" y="19.2" class="st7 st13 st12">- testimonials</tspan></text>
		<text transform="matrix(1 0 0 1 293.7651 284.6014)"><tspan x="0" y="0" class="st7 st13 st12">More of London</tspan><tspan x="0" y="19.2" class="st7 st14 st12">- Explore more </tspan><tspan x="0" y="38.4" class="st7 st14 st12 st18">	</tspan><tspan x="11.51" y="38.4" class="st7 st14 st12">testimonials</tspan></text>
		<polyline class="st10" points="254.54,169.42 254.4,223.97 278.44,224.03 		"/>
		<polyline class="st10" points="254.54,224.03 254.4,278.59 278.44,278.65 		"/>
	</g>
</g>
</svg>
